<?xml version="1.0" encoding="iso-8859-1"?>
<!-- Generator: Adobe Illustrator 19.0.0, SVG Export Plug-In . SVG Version: 6.00 Build 0)  -->
<svg version="1.1" id="Layer_1" xmlns="http://www.w3.org/2000/svg" xmlns:xlink="http://www.w3.org/1999/xlink" x="0px" y="0px"
	 viewBox="0 0 511.999 511.999" style="enable-background:new 0 0 511.999 511.999;" xml:space="preserve">
<g>
	<g>
		<path d="M505.342,195.041h-26.756c-3.677,0-6.658,2.982-6.658,6.658v49.727h-10.409v-14.071c0-10.157-8.264-18.422-18.422-18.422
			H255.192c5.465-3.216,10.389-6.822,14.06-10.797c1.919-2.077,2.315-5.138,0.992-7.636c-9.88-18.636-22.062-35.623-36.148-50.427
			c-16.263-17.528-41.496-38.036-58.257-43.315c-1.303-0.411-2.699-0.411-4.001,0c-16.789,5.288-42.011,25.795-58.186,43.251
			c-14.124,14.826-26.305,31.813-36.207,50.491c-1.324,2.498-0.927,5.56,0.992,7.636c3.671,3.976,8.595,7.581,14.06,10.797H68.904
			c-10.157,0-18.422,8.264-18.422,18.422v14.071h-10.42V112.876c0-3.678-2.982-6.658-6.658-6.658H6.658
			c-3.677,0-6.658,2.981-6.658,6.658v238.827c0,3.678,2.982,6.658,6.658,6.658h13.59l6.802,41.831
			c0.524,3.223,3.307,5.59,6.572,5.59h28.651c3.677,0,6.658-2.982,6.658-6.658v-40.762h374.136v40.762
			c0,3.677,2.982,6.658,6.658,6.658h28.651c3.265,0,6.049-2.368,6.572-5.592l6.791-41.829h13.601c3.677,0,6.658-2.982,6.658-6.658
			V201.698C512,198.023,509.018,195.041,505.342,195.041z M26.745,345.044H13.317v-225.51h13.428V345.044z M443.096,232.251
			c2.815,0,5.105,2.289,5.105,5.105v14.071H333.968l19.178-19.176H443.096z M334.312,232.251l-78.318,78.309l-78.309-78.309H334.312
			z M91.642,202.28c8.869-15.853,19.507-30.332,31.719-43.152c16.384-17.683,37.546-33.947,50.48-38.962
			c12.916,5.01,34.086,21.279,50.553,39.026c12.172,12.793,22.805,27.27,31.657,43.088c-6.989,5.701-18.634,11.5-33.509,16.654
			h-97.391C110.274,213.78,98.631,207.981,91.642,202.28z M63.799,237.355c0-2.814,2.289-5.105,5.105-5.105h89.95l19.176,19.176
			H63.799V237.355z M39.285,392.466l-5.545-34.103h21.874v34.103H39.285z M40.062,345.044v-80.301h151.285l59.94,59.94
			c1.301,1.299,3.004,1.95,4.709,1.95c1.703,0,3.408-0.65,4.708-1.95l59.948-59.94h151.276v80.301H40.062z M472.712,392.466h-16.328
			v-34.103h21.864L472.712,392.466z M498.683,345.044h-13.439V208.358h13.439V345.044z"/>
	</g>
</g>
<g>
</g>
<g>
</g>
<g>
</g>
<g>
</g>
<g>
</g>
<g>
</g>
<g>
</g>
<g>
</g>
<g>
</g>
<g>
</g>
<g>
</g>
<g>
</g>
<g>
</g>
<g>
</g>
<g>
</g>
</svg>
