<?xml version="1.0" encoding="iso-8859-1"?>
<!-- Generator: Adobe Illustrator 18.0.0, SVG Export Plug-In . SVG Version: 6.00 Build 0)  -->
<!DOCTYPE svg PUBLIC "-//W3C//DTD SVG 1.1//EN" "http://www.w3.org/Graphics/SVG/1.1/DTD/svg11.dtd">
<svg version="1.1" id="Capa_1" xmlns="http://www.w3.org/2000/svg" xmlns:xlink="http://www.w3.org/1999/xlink" x="0px" y="0px"
	 viewBox="0 0 458.339 458.339" style="enable-background:new 0 0 458.339 458.339;" xml:space="preserve">
<g>
	<path d="M455.686,162.171L345.27,17.054c-12.844-16.878-38.334-16.89-51.188,0.001l-41.249,54.212l16.322,21.451l45.601-59.932
		c2.47-3.248,7.373-3.244,9.84-0.001l110.416,145.117c4.352,5.72,12.505,6.808,18.203,2.472
		C458.923,176.03,460.03,167.881,455.686,162.171z"/>
	<path d="M289.302,370.854h85.793V212.981h-55.801c-7.706,7.781-18.442,12.105-29.992,11.245V370.854z"/>
	<path d="M280.421,107.524l42.127,55.367c6.415,8.432,8.784,18.693,7.429,28.441h55.941c5.978,0,10.825,4.846,10.825,10.825v179.523
		c0,5.979-4.846,10.825-10.825,10.825h-96.617v21.215h120.449c6.311,0,11.428-5.116,11.428-11.428V188.099L319.677,56.711
		L280.421,107.524z"/>
	<path d="M300.78,197.489c6.304-4.797,7.534-13.8,2.731-20.114L181.503,17.024c-6.679-8.778-17.251-14.019-28.281-14.019l0,0
		c-10.966,0-21.564,5.189-28.281,14.019L2.931,177.375c-4.801,6.311-3.575,15.315,2.731,20.114
		c6.26,4.766,15.315,3.576,20.114-2.731L147.786,34.404c2.731-3.589,8.138-3.591,10.871,0.001l122.009,160.353
		C285.378,200.951,294.363,202.366,300.78,197.489z"/>
	<path d="M91.985,311.858c2.992-3.934,7.709-6.486,13.033-6.486c9.048,0,16.382,7.334,16.382,16.382
		c0,9.048-7.334,16.382-16.382,16.382c-5.324,0-10.041-2.552-13.033-6.486v76.319h122.473V233.52H91.985V311.858z"/>
	<path d="M153.221,60.843c-2.137,2.766-98.847,127.951-112.159,145.183h0v236.681c0,7.034,5.76,12.628,12.628,12.628h199.064
		c6.87,0,12.628-5.596,12.628-12.628V206.026h0C251.967,188.664,155.336,63.58,153.221,60.843z M238.379,419.931
		c0,6.605-5.355,11.961-11.961,11.961H80.024c-6.606,0-11.961-5.355-11.961-11.961V221.559c0-6.606,5.355-11.961,11.961-11.961
		h146.394c6.606,0,11.961,5.355,11.961,11.961V419.931z"/>
</g>
<g>
</g>
<g>
</g>
<g>
</g>
<g>
</g>
<g>
</g>
<g>
</g>
<g>
</g>
<g>
</g>
<g>
</g>
<g>
</g>
<g>
</g>
<g>
</g>
<g>
</g>
<g>
</g>
<g>
</g>
</svg>
