<?xml version="1.0" encoding="iso-8859-1"?>
<!-- Generator: Adobe Illustrator 19.0.0, SVG Export Plug-In . SVG Version: 6.00 Build 0)  -->
<svg version="1.1" id="Layer_1" xmlns="http://www.w3.org/2000/svg" xmlns:xlink="http://www.w3.org/1999/xlink" x="0px" y="0px"
	 viewBox="0 0 511.999 511.999" style="enable-background:new 0 0 511.999 511.999;" xml:space="preserve">
<g>
	<g>
		<g>
			<path d="M493.223,240.057L379.687,126.521c-10.027-10.014-22.537-16.011-35.54-18.013
				C321.227,22.333,165.328-31.774,98.232,21.369C43.267,25.67,0,71.637,0,127.705c0,24.015,7.939,46.175,21.333,64.004v63.996
				c0,9.183,5.876,17.335,14.587,20.239l22.619,7.54l-27.707,18.471c-12.666,8.444-12.666,27.057,0,35.501l37.374,24.916
				l-37.374,24.916c-5.935,3.957-9.5,10.618-9.5,17.75v42.667c0,7.133,3.565,13.794,9.5,17.75l64,42.667
				c7.166,4.777,16.501,4.777,23.667,0l64-42.667c5.935-3.957,9.5-10.618,9.5-17.75V191.709
				c13.394-17.829,21.333-39.989,21.333-64.004c0-34.784-16.656-65.677-42.423-85.149c51.223,1.261,118.296,33.944,131.195,73.877
				c-4.675,2.724-9.083,6.082-13.09,10.088l-55.531,55.531c-25.034,25.034-25.034,65.606-0.01,90.662l113.546,113.546
				c25.035,25.035,65.636,25.035,90.671,0l55.531-55.531C518.258,305.693,518.258,265.092,493.223,240.057z M106.667,63.705
				c35.343,0,64,28.657,64,64s-28.657,64-64,64s-64-28.657-64-64S71.323,63.705,106.667,63.705z M106.667,464.732L64,436.288
				v-19.832l54.5-36.333c12.666-8.444,12.666-27.057,0-35.501l-37.374-24.916l37.374-24.916
				c14.771-9.847,11.754-32.375-5.087-37.989L64,240.329v-14.842c13.067,5.71,27.495,8.885,42.667,8.885s29.6-3.175,42.667-8.885
				v210.801L106.667,464.732z M463.053,300.558l-55.531,55.531c-8.373,8.373-21.959,8.373-30.331,0L263.655,242.553
				c-8.374-8.385-8.374-21.957,0-30.331l55.531-55.531c8.374-8.374,21.946-8.374,30.341,0.01l113.526,113.526
				C471.425,278.599,471.425,292.185,463.053,300.558z"/>
			<path d="M106.667,127.705c11.776,0,21.333-9.557,21.333-21.333s-9.557-21.333-21.333-21.333s-21.333,9.557-21.333,21.333
				S94.891,127.705,106.667,127.705z"/>
			<path d="M305.329,198.374c-8,8-8,20.992,0,29.013c8.021,8,21.013,8,29.013,0c8-8.021,8-21.013,0-29.013
				S313.35,190.374,305.329,198.374z"/>
			<path d="M378.434,241.303c-8.331-8.331-21.839-8.331-30.17,0s-8.331,21.839,0,30.17l43.52,43.52
				c8.331,8.331,21.839,8.331,30.17,0c8.331-8.331,8.331-21.839,0-30.17L378.434,241.303z"/>
		</g>
	</g>
</g>
<g>
</g>
<g>
</g>
<g>
</g>
<g>
</g>
<g>
</g>
<g>
</g>
<g>
</g>
<g>
</g>
<g>
</g>
<g>
</g>
<g>
</g>
<g>
</g>
<g>
</g>
<g>
</g>
<g>
</g>
</svg>
