<svg viewBox="0 0 72 72" xmlns="http://www.w3.org/2000/svg"><path d="m36 27.7371 5.2478 16.1509h16.9821l-13.7388 9.9819 5.2477 16.1509-13.7388-9.9818-13.7388 9.9818 5.2477-16.1509-13.7388-9.9819h16.9821z" fill="#fcea2b"/><path d="m56 8.9792v-6.9584h-40v6.9584l20 14.7578z" fill="#ea5a47"/><g style="fill:none;stroke:#000;stroke-linecap:round;stroke-linejoin:round;stroke-miterlimit:10;stroke-width:2"><path d="m36 27.7371 5.2478 16.1509h16.9821l-13.7388 9.9819 5.2477 16.1509-13.7388-9.9818-13.7388 9.9818 5.2477-16.1509-13.7388-9.9819h16.9821z"/><path d="m36 19.0643v-17.0435"/><path d="m56 8.9792v-6.9584h-40v6.9584l20 14.7578z"/><path d="m36 27.7371 5.2478 16.1509h16.9821l-13.7388 9.9819 5.2477 16.1509-13.7388-9.9818-13.7388 9.9818 5.2477-16.1509-13.7388-9.9819h16.9821z"/><path d="m36 19.0643v-17.0435"/><path d="m56 8.9792v-6.9584h-40v6.9584l20 14.7578z"/></g></svg>